<svg width="60" height="60" viewBox="0 0 60 60" fill="none" xmlns="http://www.w3.org/2000/svg">
<g filter="url(#filter0_d_753_4252)">
<g clip-path="url(#clip0_753_4252)">
<rect x="6.78136" y="5.82605" width="46.2522" height="46.2522" rx="23.1261" fill="white"/>
<rect x="-2.85451" y="5.82605" width="65.5239" height="46.2522" rx="3.85435" fill="white"/>
<mask id="mask0_753_4252" style="mask-type:luminance" maskUnits="userSpaceOnUse" x="-3" y="5" width="66" height="48">
<rect x="-2.85451" y="5.82605" width="65.5239" height="46.2522" rx="3.85435" fill="white"/>
</mask>
<g mask="url(#mask0_753_4252)">
<path fill-rule="evenodd" clip-rule="evenodd" d="M62.6694 5.82605L-2.85451 5.82605L-2.85451 8.90953L62.6694 8.90953V5.82605ZM62.6695 11.993L-2.85439 11.993L-2.85439 15.0765L62.6695 15.0765V11.993ZM-2.85439 18.16L62.6695 18.16V21.2435L-2.85439 21.2435L-2.85439 18.16ZM62.6695 24.3269L-2.85439 24.3269L-2.85439 27.4104L62.6695 27.4104V24.3269ZM-2.85439 30.4939L62.6695 30.4939V33.5773L-2.85439 33.5773L-2.85439 30.4939ZM62.6695 36.6608L-2.85439 36.6608L-2.85439 39.7443L62.6695 39.7443V36.6608ZM-2.85439 42.8278L62.6695 42.8278V45.9113L-2.85439 45.9113L-2.85439 42.8278ZM62.6695 48.9948L-2.85439 48.9948L-2.85439 52.0783L62.6695 52.0783V48.9948Z" fill="#D02F44"/>
<rect x="-2.85451" y="5.82605" width="28.0817" height="21.5844" fill="#46467F"/>
<g filter="url(#filter1_d_753_4252)">
<path fill-rule="evenodd" clip-rule="evenodd" d="M9.62654 10.4512C9.62654 11.3027 8.92807 11.993 8.06645 11.993C7.20484 11.993 6.50636 11.3027 6.50636 10.4512C6.50636 9.59975 7.20484 8.90948 8.06645 8.90948C8.92807 8.90948 9.62654 9.59975 9.62654 10.4512ZM3.38616 10.4512C3.38616 11.3027 2.68769 11.993 1.82607 11.993C0.964454 11.993 0.265976 11.3027 0.265976 10.4512C0.265976 9.59975 0.964454 8.90949 1.82607 8.90949C2.68769 8.90949 3.38616 9.59975 3.38616 10.4512ZM14.3067 11.993C15.1683 11.993 15.8668 11.3027 15.8668 10.4512C15.8668 9.59975 15.1683 8.90948 14.3067 8.90948C13.4451 8.90948 12.7466 9.59975 12.7466 10.4512C12.7466 11.3027 13.4451 11.993 14.3067 11.993ZM22.1075 10.4512C22.1075 11.3027 21.4091 11.993 20.5474 11.993C19.6858 11.993 18.9874 11.3027 18.9874 10.4512C18.9874 9.59975 19.6858 8.90948 20.5474 8.90948C21.4091 8.90948 22.1075 9.59975 22.1075 10.4512ZM4.94656 15.0764C5.80817 15.0764 6.50665 14.3861 6.50665 13.5347C6.50665 12.6832 5.80817 11.9929 4.94656 11.9929C4.08494 11.9929 3.38646 12.6832 3.38646 13.5347C3.38646 14.3861 4.08494 15.0764 4.94656 15.0764ZM12.7469 13.5347C12.7469 14.3861 12.0484 15.0764 11.1868 15.0764C10.3252 15.0764 9.62672 14.3861 9.62672 13.5347C9.62672 12.6832 10.3252 11.9929 11.1868 11.9929C12.0484 11.9929 12.7469 12.6832 12.7469 13.5347ZM17.4271 15.0764C18.2887 15.0764 18.9872 14.3861 18.9872 13.5347C18.9872 12.6832 18.2887 11.9929 17.4271 11.9929C16.5655 11.9929 15.867 12.6832 15.867 13.5347C15.867 14.3861 16.5655 15.0764 17.4271 15.0764ZM22.1075 16.6182C22.1075 17.4697 21.4091 18.1599 20.5474 18.1599C19.6858 18.1599 18.9874 17.4697 18.9874 16.6182C18.9874 15.7667 19.6858 15.0765 20.5474 15.0765C21.4091 15.0765 22.1075 15.7667 22.1075 16.6182ZM14.3067 18.1599C15.1683 18.1599 15.8668 17.4697 15.8668 16.6182C15.8668 15.7667 15.1683 15.0765 14.3067 15.0765C13.4451 15.0765 12.7466 15.7667 12.7466 16.6182C12.7466 17.4697 13.4451 18.1599 14.3067 18.1599ZM9.62654 16.6182C9.62654 17.4697 8.92807 18.1599 8.06645 18.1599C7.20484 18.1599 6.50636 17.4697 6.50636 16.6182C6.50636 15.7667 7.20484 15.0765 8.06645 15.0765C8.92807 15.0765 9.62654 15.7667 9.62654 16.6182ZM1.82619 18.1599C2.6878 18.1599 3.38628 17.4697 3.38628 16.6182C3.38628 15.7667 2.6878 15.0765 1.82619 15.0765C0.964573 15.0765 0.266095 15.7667 0.266095 16.6182C0.266095 17.4697 0.964573 18.1599 1.82619 18.1599ZM6.50665 19.7016C6.50665 20.5531 5.80817 21.2434 4.94656 21.2434C4.08494 21.2434 3.38646 20.5531 3.38646 19.7016C3.38646 18.8502 4.08494 18.1599 4.94656 18.1599C5.80817 18.1599 6.50665 18.8502 6.50665 19.7016ZM11.1868 21.2434C12.0484 21.2434 12.7469 20.5531 12.7469 19.7016C12.7469 18.8502 12.0484 18.1599 11.1868 18.1599C10.3252 18.1599 9.62672 18.8502 9.62672 19.7016C9.62672 20.5531 10.3252 21.2434 11.1868 21.2434ZM18.9872 19.7016C18.9872 20.5531 18.2887 21.2434 17.4271 21.2434C16.5655 21.2434 15.867 20.5531 15.867 19.7016C15.867 18.8502 16.5655 18.1599 17.4271 18.1599C18.2887 18.1599 18.9872 18.8502 18.9872 19.7016ZM20.5474 24.3269C21.4091 24.3269 22.1075 23.6367 22.1075 22.7852C22.1075 21.9337 21.4091 21.2434 20.5474 21.2434C19.6858 21.2434 18.9874 21.9337 18.9874 22.7852C18.9874 23.6367 19.6858 24.3269 20.5474 24.3269ZM15.8668 22.7852C15.8668 23.6367 15.1683 24.3269 14.3067 24.3269C13.4451 24.3269 12.7466 23.6367 12.7466 22.7852C12.7466 21.9337 13.4451 21.2434 14.3067 21.2434C15.1683 21.2434 15.8668 21.9337 15.8668 22.7852ZM8.06645 24.3269C8.92807 24.3269 9.62654 23.6367 9.62654 22.7852C9.62654 21.9337 8.92807 21.2434 8.06645 21.2434C7.20484 21.2434 6.50636 21.9337 6.50636 22.7852C6.50636 23.6367 7.20484 24.3269 8.06645 24.3269ZM3.38628 22.7852C3.38628 23.6367 2.6878 24.3269 1.82619 24.3269C0.964573 24.3269 0.266095 23.6367 0.266095 22.7852C0.266095 21.9337 0.964573 21.2434 1.82619 21.2434C2.6878 21.2434 3.38628 21.9337 3.38628 22.7852Z" fill="url(#paint0_linear_753_4252)"/>
</g>
</g>
</g>
</g>
<defs>
<filter id="filter0_d_753_4252" x="0.114698" y="0.22605" width="59.5855" height="59.5855" filterUnits="userSpaceOnUse" color-interpolation-filters="sRGB">
<feFlood flood-opacity="0" result="BackgroundImageFix"/>
<feColorMatrix in="SourceAlpha" type="matrix" values="0 0 0 0 0 0 0 0 0 0 0 0 0 0 0 0 0 0 127 0" result="hardAlpha"/>
<feMorphology radius="1.33333" operator="erode" in="SourceAlpha" result="effect1_dropShadow_753_4252"/>
<feOffset dy="1.06667"/>
<feGaussianBlur stdDeviation="4"/>
<feComposite in2="hardAlpha" operator="out"/>
<feColorMatrix type="matrix" values="0 0 0 0 0 0 0 0 0 0 0 0 0 0 0 0 0 0 0.05 0"/>
<feBlend mode="normal" in2="BackgroundImageFix" result="effect1_dropShadow_753_4252"/>
<feBlend mode="normal" in="SourceGraphic" in2="effect1_dropShadow_753_4252" result="shape"/>
</filter>
<filter id="filter1_d_753_4252" x="0.265976" y="8.90948" width="21.8416" height="17.3446" filterUnits="userSpaceOnUse" color-interpolation-filters="sRGB">
<feFlood flood-opacity="0" result="BackgroundImageFix"/>
<feColorMatrix in="SourceAlpha" type="matrix" values="0 0 0 0 0 0 0 0 0 0 0 0 0 0 0 0 0 0 127 0" result="hardAlpha"/>
<feOffset dy="1.92717"/>
<feColorMatrix type="matrix" values="0 0 0 0 0 0 0 0 0 0 0 0 0 0 0 0 0 0 0.06 0"/>
<feBlend mode="normal" in2="BackgroundImageFix" result="effect1_dropShadow_753_4252"/>
<feBlend mode="normal" in="SourceGraphic" in2="effect1_dropShadow_753_4252" result="shape"/>
</filter>
<linearGradient id="paint0_linear_753_4252" x1="0.265976" y1="8.90948" x2="0.265976" y2="24.3269" gradientUnits="userSpaceOnUse">
<stop stop-color="white"/>
<stop offset="1" stop-color="#F0F0F0"/>
</linearGradient>
<clipPath id="clip0_753_4252">
<rect x="6.78136" y="5.82605" width="46.2522" height="46.2522" rx="23.1261" fill="white"/>
</clipPath>
</defs>
</svg>
