<svg width="41" height="40" viewBox="0 0 41 40" fill="none" xmlns="http://www.w3.org/2000/svg">
<g clip-path="url(#clip0_679_651)">
<path d="M14.0773 20.8156L18.5275 25.2658L28.5407 14.1402M5.91438 7.60787C8.78764 7.81843 13.5574 7.17946 18.4615 3.53307C19.9942 2.3934 22.1447 2.43003 23.696 3.54426C26.167 5.31898 30.0815 7.20973 36.15 7.54144C36.3865 7.55437 36.5766 7.74891 36.5766 7.98573V15.2928C36.5766 24.4554 31.6933 32.9235 23.763 37.513C22.0542 38.5019 19.9471 38.5019 18.2383 37.513C10.3079 32.9235 5.42468 24.4554 5.42468 15.2928V8.05593C5.42468 7.79278 5.65194 7.58864 5.91438 7.60787Z" stroke="#307BFD" stroke-width="2.59599" stroke-linecap="round" stroke-linejoin="round"/>
</g>
<defs>
<clipPath id="clip0_679_651">
<rect width="40" height="40" fill="white" transform="translate(0.5)"/>
</clipPath>
</defs>
</svg>
