<svg width="20" height="20" viewBox="0 0 20 20" fill="none" xmlns="http://www.w3.org/2000/svg">
<path d="M7.31088 15.7106C7.21233 15.6195 7.13415 15.5112 7.0808 15.392C7.02746 15.2728 7 15.1451 7 15.0161C7 14.887 7.02746 14.7593 7.0808 14.6401C7.13415 14.5209 7.21233 14.4127 7.31088 14.3215L11.4355 10.4991L7.31088 6.67675C7.11212 6.49255 7.00045 6.24272 7.00045 5.98222C7.00045 5.72172 7.11212 5.47188 7.31088 5.28768C7.50964 5.10348 7.77923 5 8.06032 5C8.34142 5 8.611 5.10348 8.80977 5.28768L13.6891 9.80954C13.7877 9.90068 13.8659 10.0089 13.9192 10.1281C13.9725 10.2473 14 10.375 14 10.5041C14 10.6331 13.9725 10.7608 13.9192 10.88C13.8659 10.9992 13.7877 11.1075 13.6891 11.1986L8.80977 15.7205C8.40581 16.0948 7.72547 16.0948 7.31088 15.7106Z" fill="white"/>
</svg>
