<svg width="40" height="40" viewBox="0 0 40 40" fill="none" xmlns="http://www.w3.org/2000/svg">
<g clip-path="url(#clip0_679_673)">
<path fill-rule="evenodd" clip-rule="evenodd" d="M19.7612 20.455H19.8128C24.5328 20.455 28.3728 16.615 28.3728 11.895C28.3728 7.17504 24.5328 3.33337 19.8128 3.33337C15.0912 3.33337 11.2512 7.17504 11.2512 11.89C11.2428 14.1717 12.1245 16.3184 13.7312 17.9367C15.3362 19.5534 17.4778 20.4484 19.7612 20.455ZM13.7512 11.895C13.7512 8.55337 16.4712 5.83337 19.8128 5.83337C23.1545 5.83337 25.8728 8.55337 25.8728 11.895C25.8728 15.2367 23.1545 17.955 19.8128 17.955H19.7662C18.1528 17.9517 16.6412 17.3184 15.5045 16.1734C14.3678 15.03 13.7462 13.5117 13.7512 11.895Z" fill="#307BFD"/>
<path fill-rule="evenodd" clip-rule="evenodd" d="M7.16745 31.8949C7.16745 37.9366 16.6941 37.9366 19.8241 37.9366C22.9541 37.9366 32.4825 37.9366 32.4825 31.8582C32.4825 27.2032 26.6858 23.2699 19.8241 23.2699C12.9641 23.2699 7.16745 27.2199 7.16745 31.8949ZM9.66745 31.8949C9.66745 29.0032 14.0108 25.7699 19.8241 25.7699C25.6391 25.7699 29.9825 28.9849 29.9825 31.8582C29.9825 34.2316 26.5641 35.4366 19.8241 35.4366C13.0858 35.4366 9.66745 34.2449 9.66745 31.8949Z" fill="#307BFD"/>
</g>
<defs>
<clipPath id="clip0_679_673">
<rect width="40" height="40" fill="white"/>
</clipPath>
</defs>
</svg>
