<svg width="41" height="40" viewBox="0 0 41 40" fill="none" xmlns="http://www.w3.org/2000/svg">
<g clip-path="url(#clip0_679_607)">
<path d="M37.6078 28.6706L36.9007 27.9635V27.9635L37.6078 28.6706ZM7.97319 8.58456L8.6803 9.29166L7.97319 8.58456ZM8.46834 12.4656H29.9527V10.4656H8.46834V12.4656ZM33.7271 16.24V28.1757H35.7271V16.24H33.7271ZM29.9527 31.95H8.46835V33.95H29.9527V31.95ZM4.69403 28.1757V16.24H2.69403V28.1757H4.69403ZM8.46835 31.95C7.31476 31.95 6.55017 31.9479 5.98223 31.8716C5.44306 31.7991 5.23314 31.6766 5.10032 31.5438L3.68611 32.958C4.25247 33.5243 4.95479 33.7514 5.71574 33.8537C6.44792 33.9522 7.3713 33.95 8.46835 33.95V31.95ZM2.69403 28.1757C2.69403 29.2728 2.69191 30.1962 2.79035 30.9283C2.89265 31.6893 3.11975 32.3916 3.68611 32.958L5.10032 31.5438C4.9675 31.4109 4.845 31.201 4.77251 30.6618C4.69615 30.0939 4.69403 29.3293 4.69403 28.1757H2.69403ZM33.7271 28.1757C33.7271 29.3293 33.7249 30.0939 33.6486 30.6618C33.5761 31.201 33.4536 31.4109 33.3208 31.5438L34.735 32.958C35.3013 32.3916 35.5284 31.6893 35.6307 30.9283C35.7292 30.1962 35.7271 29.2728 35.7271 28.1757H33.7271ZM29.9527 33.95C31.0498 33.95 31.9732 33.9522 32.7054 33.8537C33.4663 33.7514 34.1686 33.5243 34.735 32.958L33.3208 31.5438C33.1879 31.6766 32.978 31.7991 32.4389 31.8716C31.8709 31.9479 31.1063 31.95 29.9527 31.95V33.95ZM29.9527 12.4656C31.1063 12.4656 31.8709 12.4678 32.4389 12.5441C32.978 12.6166 33.1879 12.7391 33.3208 12.8719L34.735 11.4577C34.1686 10.8914 33.4663 10.6643 32.7053 10.562C31.9732 10.4635 31.0498 10.4656 29.9527 10.4656V12.4656ZM35.7271 16.24C35.7271 15.1429 35.7292 14.2195 35.6307 13.4873C35.5284 12.7264 35.3013 12.0241 34.735 11.4577L33.3208 12.8719C33.4536 13.0048 33.5761 13.2147 33.6486 13.7538C33.7249 14.3218 33.7271 15.0864 33.7271 16.24H35.7271ZM8.46834 10.4656C7.3713 10.4656 6.44791 10.4635 5.71574 10.562C4.95479 10.6643 4.25247 10.8914 3.68611 11.4577L5.10032 12.8719C5.23314 12.7391 5.44306 12.6166 5.98223 12.5441C6.55017 12.4678 7.31476 12.4656 8.46834 12.4656V10.4656ZM4.69403 16.24C4.69403 15.0864 4.69615 14.3218 4.77251 13.7538C4.845 13.2147 4.9675 13.0048 5.10032 12.8719L3.68611 11.4577C3.11975 12.0241 2.89265 12.7264 2.79035 13.4874C2.69191 14.2195 2.69403 15.1429 2.69403 16.24H4.69403ZM12.0483 8.88538H33.5327V6.88538H12.0483V8.88538ZM37.307 12.6597V24.5955H39.307V12.6597H37.307ZM37.307 24.5955C37.307 25.7491 37.3049 26.5136 37.2286 27.0816C37.1561 27.6207 37.0336 27.8307 36.9007 27.9635L38.315 29.3777C38.8813 28.8113 39.1084 28.109 39.2107 27.3481C39.3092 26.6159 39.307 25.6925 39.307 24.5955H37.307ZM33.5327 8.88538C34.6863 8.88538 35.4509 8.8875 36.0188 8.96386C36.558 9.03635 36.7679 9.15884 36.9007 9.29167L38.315 7.87745C37.7486 7.31109 37.0463 7.084 36.2853 6.98169C35.5532 6.88325 34.6298 6.88538 33.5327 6.88538V8.88538ZM39.307 12.6597C39.307 11.5626 39.3092 10.6393 39.2107 9.90708C39.1084 9.14614 38.8813 8.44381 38.315 7.87745L36.9007 9.29167C37.0336 9.42449 37.1561 9.63441 37.2286 10.1736C37.3049 10.7415 37.307 11.5061 37.307 12.6597H39.307ZM12.0483 6.88538C10.9513 6.88538 10.0279 6.88325 9.29571 6.98169C8.53477 7.084 7.83244 7.31109 7.26608 7.87745L8.6803 9.29166C8.81312 9.15884 9.02304 9.03635 9.56221 8.96386C10.1301 8.8875 10.8947 8.88538 12.0483 8.88538V6.88538ZM8.27909 11.4806C8.3015 9.93133 8.447 9.52496 8.6803 9.29166L7.26608 7.87745C6.37373 8.7698 6.2997 10.0413 6.2793 11.4516L8.27909 11.4806ZM34.7408 30.3645C36.1511 30.3441 37.4226 30.2701 38.315 29.3777L36.9007 27.9635C36.6674 28.1968 36.2611 28.3423 34.7118 28.3647L34.7408 30.3645ZM3.69403 17.5387H34.7271V15.5387H3.69403V17.5387ZM3.69403 21.1194H34.7271V19.1194H3.69403V21.1194ZM29.61 27.8173C29.61 28.2538 29.2561 28.6076 28.8196 28.6076V30.6076C30.3607 30.6076 31.61 29.3583 31.61 27.8173H29.61ZM28.8196 28.6076C28.3831 28.6076 28.0292 28.2538 28.0292 27.8173H26.0292C26.0292 29.3583 27.2785 30.6076 28.8196 30.6076V28.6076ZM28.0292 27.8173C28.0292 27.3808 28.3831 27.0269 28.8196 27.0269V25.0269C27.2785 25.0269 26.0292 26.2762 26.0292 27.8173H28.0292ZM28.8196 27.0269C29.2561 27.0269 29.61 27.3808 29.61 27.8173H31.61C31.61 26.2762 30.3607 25.0269 28.8196 25.0269V27.0269ZM26.4315 28.6076C25.995 28.6076 25.6411 28.2538 25.6411 27.8173H23.6411C23.6411 29.3583 24.8904 30.6076 26.4315 30.6076V28.6076ZM25.6411 27.8173C25.6411 27.3808 25.995 27.0269 26.4315 27.0269V25.0269C24.8904 25.0269 23.6411 26.2762 23.6411 27.8173H25.6411ZM26.4315 27.0269C26.6346 27.0269 26.8177 27.1022 26.9582 27.2279L28.292 25.7377C27.799 25.2964 27.1455 25.0269 26.4315 25.0269V27.0269ZM26.9582 28.4066C26.8177 28.5324 26.6346 28.6076 26.4315 28.6076V30.6076C27.1455 30.6076 27.799 30.3381 28.292 29.8969L26.9582 28.4066Z" fill="#307BFD"/>
</g>
<defs>
<clipPath id="clip0_679_607">
<rect width="40" height="40" fill="white" transform="translate(0.5)"/>
</clipPath>
</defs>
</svg>
