<svg width="29" height="36" viewBox="0 0 29 36" fill="none" xmlns="http://www.w3.org/2000/svg">
<path d="M26.7447 2.78351C26.5069 2.4426 26.1502 2.21533 25.6745 2.21533H11.4058C10.9302 2.21533 10.5735 2.4426 10.3356 2.78351L2.01222 17.5562C1.77441 17.8972 1.77441 18.3517 2.01222 18.6926C2.25003 19.0335 2.60675 19.2608 3.08238 19.2608H8.31424L2.01222 32.4426C1.77441 32.8972 1.89332 33.4653 2.36894 33.8062C2.48785 33.9199 2.84456 34.0335 3.08238 34.0335C3.32019 34.0335 3.558 33.9199 3.79581 33.8062L25.1989 19.0335C25.6745 18.6926 25.7934 18.2381 25.6745 17.7835C25.5556 17.329 25.08 16.9881 24.4855 16.9881H19.3725L26.7447 3.91988C26.8636 3.57897 26.8636 3.12442 26.7447 2.78351Z" stroke="#307BFD" stroke-width="2.83199" stroke-linejoin="round"/>
</svg>
