<svg width="184" height="24" viewBox="0 0 184 24" fill="none" xmlns="http://www.w3.org/2000/svg">
<path d="M11.999 7.37695C10.7726 7.37695 9.59651 7.86412 8.72934 8.73129C7.86217 9.59846 7.375 10.7746 7.375 12.001C7.375 13.2273 7.86217 14.4034 8.72934 15.2706C9.59651 16.1378 10.7726 16.625 11.999 16.625C13.2254 16.625 14.4015 16.1378 15.2687 15.2706C16.1358 14.4034 16.623 13.2273 16.623 12.001C16.623 10.7746 16.1358 9.59846 15.2687 8.73129C14.4015 7.86412 13.2254 7.37695 11.999 7.37695ZM11.999 15.004C11.2023 15.004 10.4382 14.6875 9.87485 14.1241C9.31149 13.5607 8.995 12.7967 8.995 12C8.995 11.2032 9.31149 10.4392 9.87485 9.8758C10.4382 9.31245 11.2023 8.99595 11.999 8.99595C12.7957 8.99595 13.5598 9.31245 14.1231 9.8758C14.6865 10.4392 15.003 11.2032 15.003 12C15.003 12.7967 14.6865 13.5607 14.1231 14.1241C13.5598 14.6875 12.7957 15.004 11.999 15.004Z" fill="white"/>
<path d="M16.8046 8.28491C17.3999 8.28491 17.8826 7.80227 17.8826 7.20691C17.8826 6.61154 17.3999 6.12891 16.8046 6.12891C16.2092 6.12891 15.7266 6.61154 15.7266 7.20691C15.7266 7.80227 16.2092 8.28491 16.8046 8.28491Z" fill="white"/>
<path d="M20.5349 6.11064C20.3034 5.51282 19.9496 4.96992 19.4962 4.5167C19.0428 4.06347 18.4998 3.70991 17.9019 3.47864C17.2022 3.216 16.4631 3.07398 15.7159 3.05864C14.7529 3.01664 14.4479 3.00464 12.0059 3.00464C9.56391 3.00464 9.25091 3.00464 8.29591 3.05864C7.54929 3.0732 6.81066 3.21524 6.11191 3.47864C5.51384 3.70964 4.97067 4.06311 4.51724 4.51637C4.06381 4.96963 3.71013 5.51266 3.47891 6.11064C3.21621 6.81025 3.07452 7.54948 3.05991 8.29664C3.01691 9.25864 3.00391 9.56364 3.00391 12.0066C3.00391 14.4486 3.00391 14.7596 3.05991 15.7166C3.07491 16.4646 3.21591 17.2026 3.47891 17.9036C3.71078 18.5014 4.0648 19.0442 4.51834 19.4974C4.97188 19.9506 5.51497 20.3042 6.11291 20.5356C6.81034 20.8088 7.54928 20.961 8.29791 20.9856C9.26091 21.0276 9.56591 21.0406 12.0079 21.0406C14.4499 21.0406 14.7629 21.0406 15.7179 20.9856C16.465 20.9704 17.2041 20.8288 17.9039 20.5666C18.5017 20.3348 19.0445 19.981 19.4979 19.5276C19.9512 19.0743 20.3051 18.5314 20.5369 17.9336C20.7999 17.2336 20.9409 16.4956 20.9559 15.7476C20.9989 14.7856 21.0119 14.4806 21.0119 12.0376C21.0119 9.59464 21.0119 9.28464 20.9559 8.32764C20.9443 7.56991 20.8018 6.81989 20.5349 6.11064ZM19.3169 15.6426C19.3105 16.2189 19.2053 16.7899 19.0059 17.3306C18.8557 17.7195 18.6258 18.0726 18.331 18.3673C18.0361 18.662 17.6829 18.8917 17.2939 19.0416C16.7591 19.2401 16.1943 19.3453 15.6239 19.3526C14.6739 19.3966 14.4059 19.4076 11.9699 19.4076C9.53191 19.4076 9.28291 19.4076 8.31491 19.3526C7.74483 19.3457 7.18023 19.2405 6.64591 19.0416C6.25559 18.8926 5.90091 18.6633 5.6048 18.3686C5.30868 18.0739 5.07774 17.7203 4.92691 17.3306C4.73035 16.7957 4.62522 16.2315 4.61591 15.6616C4.57291 14.7116 4.56291 14.4436 4.56291 12.0076C4.56291 9.57064 4.56291 9.32164 4.61591 8.35264C4.62237 7.77666 4.72756 7.20606 4.92691 6.66564C5.23191 5.87664 5.85691 5.25564 6.64591 4.95364C7.1805 4.75578 7.74493 4.6506 8.31491 4.64264C9.26591 4.59964 9.53291 4.58764 11.9699 4.58764C14.4069 4.58764 14.6569 4.58764 15.6239 4.64264C16.1943 4.6495 16.7593 4.75471 17.2939 4.95364C17.6828 5.10391 18.036 5.33384 18.3309 5.62867C18.6257 5.9235 18.8556 6.27671 19.0059 6.66564C19.2025 7.20059 19.3076 7.7648 19.3169 8.33464C19.3599 9.28564 19.3709 9.55264 19.3709 11.9896C19.3709 14.4256 19.3709 14.6876 19.3279 15.6436H19.3169V15.6426Z" fill="white"/>
<g clip-path="url(#clip0_818_15780)">
<path d="M58.1542 4.11799C56.3772 2.33674 54.0107 1.35706 51.4958 1.35706C46.3047 1.35706 42.0806 5.58116 42.0806 10.7722C42.0806 12.4305 42.5132 14.0506 43.3359 15.4798L42 20.3571L46.9917 19.0466C48.3658 19.7972 49.9138 20.1917 51.4915 20.1917H51.4958C56.6826 20.1917 61 15.9675 61 10.7765C61 8.26152 59.9312 5.89924 58.1542 4.11799ZM51.4958 18.6055C50.0877 18.6055 48.7094 18.228 47.5092 17.5155L47.225 17.3459L44.2647 18.122L45.0536 15.2338L44.867 14.937C44.0824 13.6901 43.671 12.2524 43.671 10.7722C43.671 6.45906 47.1826 2.94746 51.5 2.94746C53.5908 2.94746 55.5545 3.76174 57.0304 5.24188C58.5062 6.72201 59.4138 8.68563 59.4096 10.7765C59.4096 15.0939 55.8089 18.6055 51.4958 18.6055ZM55.7877 12.7443C55.5545 12.6256 54.3967 12.0573 54.1804 11.9809C53.9641 11.9004 53.8071 11.8622 53.6502 12.0997C53.4933 12.3372 53.0437 12.8631 52.9038 13.0242C52.7681 13.1812 52.6281 13.2024 52.3949 13.0836C51.0123 12.3923 50.1047 11.8495 49.1929 10.2845C48.9511 9.86889 49.4346 9.89857 49.8842 8.99947C49.9605 8.84255 49.9223 8.70683 49.8629 8.58808C49.8036 8.46933 49.3328 7.31152 49.1377 6.84076C48.9469 6.38273 48.7518 6.44634 48.6076 6.43786C48.4719 6.42938 48.315 6.42938 48.158 6.42938C48.0011 6.42938 47.7467 6.48875 47.5304 6.72201C47.3141 6.95951 46.7076 7.52781 46.7076 8.68563C46.7076 9.84344 47.5516 10.9631 47.6661 11.12C47.7848 11.2769 49.3243 13.6519 51.6866 14.674C53.1795 15.3187 53.7647 15.3738 54.5112 15.2635C54.965 15.1957 55.9022 14.6952 56.0973 14.1439C56.2924 13.5925 56.2924 13.1218 56.233 13.0242C56.1779 12.9182 56.021 12.8588 55.7877 12.7443Z" fill="white"/>
</g>
<path d="M102.5 11.9344C102.5 11.8828 102.5 11.8242 102.498 11.7562C102.495 11.5664 102.491 11.3531 102.486 11.1258C102.467 10.4719 102.434 9.82029 102.383 9.20622C102.312 8.36013 102.209 7.65466 102.069 7.12498C101.92 6.5722 101.629 6.06806 101.225 5.66294C100.821 5.25781 100.317 4.9659 99.7648 4.81638C99.1016 4.63826 97.8031 4.5281 95.975 4.46013C95.1055 4.42732 94.175 4.40623 93.2445 4.39451C92.9187 4.38982 92.6164 4.38748 92.3445 4.38513H91.6555C91.3836 4.38748 91.0813 4.38982 90.7555 4.39451C89.825 4.40623 88.8945 4.42732 88.025 4.46013C86.1969 4.53044 84.8961 4.6406 84.2352 4.81638C83.6825 4.96554 83.1788 5.25732 82.7744 5.6625C82.37 6.06768 82.0793 6.57202 81.9313 7.12498C81.7883 7.65466 81.6875 8.36013 81.6172 9.20622C81.5656 9.82029 81.5328 10.4719 81.5141 11.1258C81.507 11.3531 81.5047 11.5664 81.5023 11.7562C81.5023 11.8242 81.5 11.8828 81.5 11.9344V12.0656C81.5 12.1172 81.5 12.1758 81.5023 12.2437C81.5047 12.4336 81.5094 12.6468 81.5141 12.8742C81.5328 13.5281 81.5656 14.1797 81.6172 14.7937C81.6875 15.6398 81.7906 16.3453 81.9313 16.875C82.2313 17.9976 83.1125 18.8836 84.2352 19.1836C84.8961 19.3617 86.1969 19.4718 88.025 19.5398C88.8945 19.5726 89.825 19.5937 90.7555 19.6054C91.0813 19.6101 91.3836 19.6125 91.6555 19.6148H92.3445C92.6164 19.6125 92.9187 19.6101 93.2445 19.6054C94.175 19.5937 95.1055 19.5726 95.975 19.5398C97.8031 19.4695 99.1039 19.3594 99.7648 19.1836C100.887 18.8836 101.769 18 102.069 16.875C102.212 16.3453 102.312 15.6398 102.383 14.7937C102.434 14.1797 102.467 13.5281 102.486 12.8742C102.493 12.6468 102.495 12.4336 102.498 12.2437C102.498 12.1758 102.5 12.1172 102.5 12.0656V11.9344ZM100.812 12.0562C100.812 12.1054 100.812 12.1593 100.81 12.2226C100.808 12.4054 100.803 12.607 100.798 12.825C100.782 13.4484 100.749 14.0718 100.7 14.6508C100.637 15.4054 100.548 16.0242 100.438 16.439C100.292 16.9804 99.8656 17.4094 99.3266 17.5523C98.8344 17.6836 97.5945 17.789 95.9094 17.8523C95.0562 17.8851 94.1375 17.9062 93.2211 17.9179C92.9 17.9226 92.6023 17.925 92.3352 17.925H91.6648L90.7789 17.9179C89.8625 17.9062 88.9461 17.8851 88.0906 17.8523C86.4055 17.7867 85.1633 17.6836 84.6734 17.5523C84.1344 17.407 83.7078 16.9804 83.5625 16.439C83.4523 16.0242 83.3633 15.4054 83.3 14.6508C83.2508 14.0718 83.2203 13.4484 83.2016 12.825C83.1945 12.607 83.1922 12.4031 83.1898 12.2226C83.1898 12.1593 83.1875 12.1031 83.1875 12.0562V11.9437C83.1875 11.8945 83.1875 11.8406 83.1898 11.7773C83.1922 11.5945 83.1969 11.3929 83.2016 11.175C83.218 10.5515 83.2508 9.9281 83.3 9.34919C83.3633 8.59451 83.4523 7.97576 83.5625 7.56091C83.7078 7.01951 84.1344 6.5906 84.6734 6.44763C85.1656 6.31638 86.4055 6.21091 88.0906 6.14763C88.9438 6.11482 89.8625 6.09373 90.7789 6.08201C91.1 6.07732 91.3977 6.07498 91.6648 6.07498H92.3352L93.2211 6.08201C94.1375 6.09373 95.0539 6.11482 95.9094 6.14763C97.5945 6.21326 98.8367 6.31638 99.3266 6.44763C99.8656 6.59294 100.292 7.01951 100.438 7.56091C100.548 7.97576 100.637 8.59451 100.7 9.34919C100.749 9.9281 100.78 10.5515 100.798 11.175C100.805 11.3929 100.808 11.5968 100.81 11.7773C100.81 11.8406 100.812 11.8969 100.812 11.9437V12.0562ZM89.9141 15.1406L95.3516 11.9765L89.9141 8.85935V15.1406Z" fill="white"/>
<path fill-rule="evenodd" clip-rule="evenodd" d="M129.429 8.96876H133.143V10.8188C133.678 9.75476 135.05 8.79876 137.111 8.79876C141.062 8.79876 142 10.9168 142 14.8028V21.9998H138V15.6878C138 13.4748 137.465 12.2268 136.103 12.2268C134.214 12.2268 133.429 13.5718 133.429 15.6868V21.9998H129.429V8.96876ZM122.57 21.8298H126.57V8.79876H122.57V21.8298ZM127.143 4.54976C127.143 4.88503 127.077 5.21699 126.947 5.52634C126.818 5.8357 126.629 6.11627 126.39 6.35176C125.906 6.83238 125.252 7.10141 124.57 7.09976C123.889 7.0993 123.236 6.83096 122.752 6.35276C122.514 6.11647 122.325 5.83558 122.196 5.52619C122.067 5.2168 122.001 4.88498 122 4.54976C122 3.87276 122.27 3.22476 122.753 2.74676C123.237 2.26791 123.89 1.99946 124.571 1.99976C125.253 1.99976 125.907 2.26876 126.39 2.74676C126.872 3.22476 127.143 3.87276 127.143 4.54976Z" fill="white"/>
<path d="M182 5.01242C181.251 5.35943 180.457 5.58721 179.643 5.68818C180.491 5.15705 181.141 4.31598 181.447 3.31386C180.642 3.81376 179.761 4.16598 178.842 4.35529C178.093 3.52125 177.027 3 175.847 3C173.581 3 171.743 4.92156 171.743 7.29155C171.743 7.62796 171.78 7.95547 171.85 8.26965C168.44 8.09062 165.416 6.38209 163.392 3.78559C163.039 4.41943 162.837 5.15673 162.837 5.94313C162.837 7.4321 163.561 8.74563 164.662 9.51528C164.011 9.49394 163.373 9.30986 162.804 8.97843C162.803 8.99641 162.803 9.01438 162.803 9.03244C162.803 11.1118 164.218 12.8464 166.095 13.2406C165.491 13.4125 164.857 13.4377 164.242 13.3142C164.764 15.0192 166.279 16.2599 168.075 16.2947C166.67 17.4457 164.901 18.1318 162.979 18.1318C162.648 18.1318 162.321 18.1115 162 18.0718C163.816 19.2895 165.973 20 168.29 20C175.837 20 179.964 13.4605 179.964 7.78926C179.964 7.60312 179.96 7.41804 179.953 7.23403C180.756 6.62664 181.449 5.87434 182 5.01242Z" fill="white"/>
<defs>
<clipPath id="clip0_818_15780">
<rect width="19" height="21.7143" fill="white" transform="translate(42)"/>
</clipPath>
</defs>
</svg>
