<svg width="34" height="33" viewBox="0 0 34 33" fill="none" xmlns="http://www.w3.org/2000/svg">
<path fill-rule="evenodd" clip-rule="evenodd" d="M17.0871 2.95801C15.8954 2.95801 15.2137 4.45801 14.3104 6.74467C13.7537 8.15967 13.1754 9.61967 12.2504 10.5763C11.0487 11.8163 9.13374 11.913 7.28041 12.0047C4.83374 12.1247 3.65207 12.3013 3.39374 13.4013C3.11041 14.6097 3.91207 15.4263 5.67707 16.883C6.99041 17.9663 8.47874 19.193 8.87541 20.998C9.21541 22.5463 8.80041 24.1713 8.39874 25.7413C7.78041 28.1613 7.59874 29.383 8.60541 30.1447C9.53207 30.843 10.5154 30.333 12.5354 28.9963C13.9587 28.0563 15.4271 27.083 17.0871 27.083C18.7454 27.083 20.2154 28.0563 21.6371 28.9963C23.6554 30.3313 24.6371 30.843 25.5687 30.1447C26.5754 29.383 26.3937 28.1597 25.7737 25.7397C25.3737 24.1713 24.9587 22.5463 25.2987 20.9963C25.6937 19.193 27.1821 17.9663 28.4954 16.883C30.2604 15.428 31.0621 14.6097 30.7787 13.3997C30.5204 12.3013 29.3404 12.1247 26.8937 12.0047C25.0404 11.913 23.1237 11.8163 21.9237 10.5763C20.9987 9.61967 20.4204 8.15967 19.8637 6.74467C18.9587 4.45634 18.2771 2.95801 17.0871 2.95801ZM9.45207 32.9697C8.68041 32.9697 7.89041 32.7347 7.10041 32.1397C4.65374 30.2947 5.38707 27.4263 5.97541 25.123C6.30541 23.833 6.64541 22.5047 6.43207 21.5347C6.22207 20.5713 5.18541 19.718 4.08874 18.813C2.39707 17.4197 0.290407 15.683 0.960407 12.8297C1.67874 9.77801 4.84541 9.62134 7.15707 9.50801C8.46207 9.44301 9.94041 9.36967 10.4537 8.83801C11.0337 8.23967 11.5171 7.01467 11.9854 5.82801C12.9304 3.43467 14.1054 0.458008 17.0871 0.458008C20.0671 0.458008 21.2437 3.43467 22.1887 5.82801C22.6571 7.01467 23.1404 8.23967 23.7204 8.83801C24.2337 9.36967 25.7121 9.44301 27.0171 9.50801C29.3287 9.62134 32.4954 9.77801 33.2121 12.828C33.8821 15.683 31.7754 17.4197 30.0854 18.813C28.9871 19.718 27.9504 20.5713 27.7404 21.5347C27.5271 22.503 27.8671 23.833 28.1971 25.1213C28.7871 27.4263 29.5187 30.293 27.0737 32.1397C24.6321 33.9763 22.2071 32.3713 20.2571 31.0813C19.1437 30.3447 17.9921 29.583 17.0871 29.583C16.1804 29.583 15.0287 30.3447 13.9154 31.0813C12.5971 31.953 11.0621 32.9697 9.45207 32.9697Z" fill="#307BFD"/>
</svg>
